<?xml version="1.0" encoding="UTF-8"?>
<!DOCTYPE svg PUBLIC "-//W3C//DTD SVG 1.1//EN" "http://www.w3.org/Graphics/SVG/1.1/DTD/svg11.dtd">
<svg version="1.2" width="201.25mm" height="209.57mm" viewBox="3063 2647 20125 20957" preserveAspectRatio="xMidYMid" fill-rule="evenodd" stroke-width="28.222" stroke-linejoin="round" xmlns="http://www.w3.org/2000/svg" xmlns:ooo="http://xml.openoffice.org/svg/export" xmlns:xlink="http://www.w3.org/1999/xlink" xmlns:presentation="http://sun.com/xmlns/staroffice/presentation" xmlns:smil="http://www.w3.org/2001/SMIL20/" xmlns:anim="urn:oasis:names:tc:opendocument:xmlns:animation:1.0" xml:space="preserve">
 <defs class="ClipPathGroup">
  <clipPath id="presentation_clip_path" clipPathUnits="userSpaceOnUse">
   <rect x="3063" y="2647" width="20125" height="20957"/>
  </clipPath>
  <clipPath id="presentation_clip_path_shrink" clipPathUnits="userSpaceOnUse">
   <rect x="3083" y="2667" width="20085" height="20916"/>
  </clipPath>
 </defs>
 <defs class="TextShapeIndex">
  <g ooo:slide="id1" ooo:id-list="id3 id4 id5"/>
 </defs>
 <defs class="EmbeddedBulletChars">
  <g id="bullet-char-template-57356" transform="scale(0.00048828125,-0.00048828125)">
   <path d="M 580,1141 L 1163,571 580,0 -4,571 580,1141 Z"/>
  </g>
  <g id="bullet-char-template-57354" transform="scale(0.00048828125,-0.00048828125)">
   <path d="M 8,1128 L 1137,1128 1137,0 8,0 8,1128 Z"/>
  </g>
  <g id="bullet-char-template-10146" transform="scale(0.00048828125,-0.00048828125)">
   <path d="M 174,0 L 602,739 174,1481 1456,739 174,0 Z M 1358,739 L 309,1346 659,739 1358,739 Z"/>
  </g>
  <g id="bullet-char-template-10132" transform="scale(0.00048828125,-0.00048828125)">
   <path d="M 2015,739 L 1276,0 717,0 1260,543 174,543 174,936 1260,936 717,1481 1274,1481 2015,739 Z"/>
  </g>
  <g id="bullet-char-template-10007" transform="scale(0.00048828125,-0.00048828125)">
   <path d="M 0,-2 C -7,14 -16,27 -25,37 L 356,567 C 262,823 215,952 215,954 215,979 228,992 255,992 264,992 276,990 289,987 310,991 331,999 354,1012 L 381,999 492,748 772,1049 836,1024 860,1049 C 881,1039 901,1025 922,1006 886,937 835,863 770,784 769,783 710,716 594,584 L 774,223 C 774,196 753,168 711,139 L 727,119 C 717,90 699,76 672,76 641,76 570,178 457,381 L 164,-76 C 142,-110 111,-127 72,-127 30,-127 9,-110 8,-76 1,-67 -2,-52 -2,-32 -2,-23 -1,-13 0,-2 Z"/>
  </g>
  <g id="bullet-char-template-10004" transform="scale(0.00048828125,-0.00048828125)">
   <path d="M 285,-33 C 182,-33 111,30 74,156 52,228 41,333 41,471 41,549 55,616 82,672 116,743 169,778 240,778 293,778 328,747 346,684 L 369,508 C 377,444 397,411 428,410 L 1163,1116 C 1174,1127 1196,1133 1229,1133 1271,1133 1292,1118 1292,1087 L 1292,965 C 1292,929 1282,901 1262,881 L 442,47 C 390,-6 338,-33 285,-33 Z"/>
  </g>
  <g id="bullet-char-template-9679" transform="scale(0.00048828125,-0.00048828125)">
   <path d="M 813,0 C 632,0 489,54 383,161 276,268 223,411 223,592 223,773 276,916 383,1023 489,1130 632,1184 813,1184 992,1184 1136,1130 1245,1023 1353,916 1407,772 1407,592 1407,412 1353,268 1245,161 1136,54 992,0 813,0 Z"/>
  </g>
  <g id="bullet-char-template-8226" transform="scale(0.00048828125,-0.00048828125)">
   <path d="M 346,457 C 273,457 209,483 155,535 101,586 74,649 74,723 74,796 101,859 155,911 209,963 273,989 346,989 419,989 480,963 531,910 582,859 608,796 608,723 608,648 583,586 532,535 482,483 420,457 346,457 Z"/>
  </g>
  <g id="bullet-char-template-8211" transform="scale(0.00048828125,-0.00048828125)">
   <path d="M -4,459 L 1135,459 1135,606 -4,606 -4,459 Z"/>
  </g>
  <g id="bullet-char-template-61548" transform="scale(0.00048828125,-0.00048828125)">
   <path d="M 173,740 C 173,903 231,1043 346,1159 462,1274 601,1332 765,1332 928,1332 1067,1274 1183,1159 1299,1043 1357,903 1357,740 1357,577 1299,437 1183,322 1067,206 928,148 765,148 601,148 462,206 346,322 231,437 173,577 173,740 Z"/>
  </g>
 </defs>
 <defs class="TextEmbeddedBitmaps"/>
 <g class="SlideGroup">
  <g>
   <g id="container-id1">
    <g id="id1" class="Slide" clip-path="url(#presentation_clip_path)">
     <g class="Page">
      <g class="com.sun.star.drawing.ClosedBezierShape">
       <g id="id3">
        <rect class="BoundingBox" stroke="none" fill="none" x="17301" y="2647" width="5888" height="5888"/>
        <path fill="rgb(0,0,0)" stroke="none" d="M 20125,2647 C 18887,2647 17773,3403 17301,4525 17303,4526 17305,4527 17307,4528 17323,4536 17339,4544 17354,4553 17396,4574 17438,4596 17480,4619 17501,4630 17522,4642 17543,4654 17579,4673 17615,4693 17651,4713 17673,4726 17696,4739 17718,4752 17752,4772 17786,4792 17820,4812 17843,4825 17865,4839 17888,4852 17921,4873 17955,4893 17988,4914 18010,4928 18032,4941 18053,4955 18088,4977 18123,5000 18157,5022 18177,5035 18196,5048 18216,5061 18255,5087 18294,5114 18333,5141 18347,5151 18362,5160 18376,5170 18429,5207 18482,5245 18534,5283 18542,5288 18549,5294 18557,5300 18601,5332 18646,5365 18690,5399 18707,5412 18723,5425 18740,5438 18774,5464 18808,5491 18842,5518 18861,5533 18880,5548 18899,5564 18931,5589 18962,5614 18993,5640 19012,5656 19032,5673 19051,5689 19082,5715 19112,5741 19142,5767 19161,5783 19180,5799 19199,5816 19229,5843 19260,5870 19290,5898 19308,5914 19325,5930 19343,5946 19376,5976 19409,6007 19441,6038 19455,6051 19470,6064 19483,6078 19577,6167 19668,6258 19757,6352 19771,6365 19783,6379 19797,6393 19828,6426 19859,6459 19890,6493 19905,6510 19921,6527 19937,6545 19964,6575 19992,6606 20019,6637 20036,6655 20052,6674 20068,6693 20095,6723 20121,6754 20146,6784 20163,6803 20179,6823 20195,6842 20221,6873 20246,6905 20272,6936 20287,6955 20302,6974 20317,6993 20344,7027 20371,7061 20398,7096 20411,7112 20424,7129 20436,7145 20470,7190 20504,7235 20537,7280 20542,7287 20547,7294 20552,7300 20590,7353 20628,7406 20665,7459 20675,7473 20684,7487 20693,7500 20720,7540 20748,7579 20774,7619 20787,7639 20799,7658 20812,7677 20835,7712 20858,7747 20880,7782 20894,7804 20907,7825 20920,7846 20941,7880 20962,7914 20983,7949 20997,7970 21010,7992 21022,8014 21043,8049 21064,8084 21084,8119 21096,8140 21109,8162 21121,8183 21142,8220 21163,8258 21183,8295 21194,8315 21205,8334 21215,8354 21240,8399 21263,8444 21287,8489 21293,8502 21300,8514 21306,8526 21308,8529 21309,8532 21310,8534 22432,8062 23188,6948 23188,5710 23188,4021 21814,2647 20125,2647 Z"/>
       </g>
      </g>
      <g class="com.sun.star.drawing.ClosedBezierShape">
       <g id="id4">
        <rect class="BoundingBox" stroke="none" fill="none" x="4813" y="4397" width="16627" height="19208"/>
        <path fill="rgb(0,0,0)" stroke="none" d="M 21439,12710 C 21439,11506 21187,10344 20690,9257 19858,7438 18398,5978 16579,5146 15492,4649 14330,4397 13126,4397 8542,4397 4813,8126 4813,12710 4813,15685 6384,18299 8740,19768 L 6388,22904 C 6243,23098 6282,23372 6476,23517 6554,23576 6646,23604 6738,23604 6871,23604 7002,23544 7088,23429 L 9513,20196 C 10606,20726 11832,21023 13126,21023 14774,21023 16311,20541 17604,19711 17613,19726 17622,19740 17632,19754 L 20258,23254 C 20344,23369 20475,23429 20608,23429 20699,23429 20791,23401 20870,23342 21063,23197 21103,22923 20958,22729 L 18333,19229 C 18326,19220 18318,19211 18311,19203 20216,17678 21439,15334 21439,12710 Z M 16061,15644 C 15975,15730 15863,15773 15751,15773 15639,15773 15527,15730 15442,15644 L 12817,13019 C 12735,12937 12688,12826 12688,12710 L 12688,7460 C 12688,7218 12884,7022 13126,7022 13368,7022 13563,7218 13563,7460 L 13563,12529 16060,15026 C 16231,15197 16231,15474 16061,15644 Z"/>
       </g>
      </g>
      <g class="com.sun.star.drawing.ClosedBezierShape">
       <g id="id5">
        <rect class="BoundingBox" stroke="none" fill="none" x="3063" y="2647" width="5888" height="5888"/>
        <path fill="rgb(0,0,0)" stroke="none" d="M 8950,4525 C 8478,3403 7364,2647 6126,2647 4437,2647 3063,4021 3063,5710 3063,6948 3819,8062 4941,8534 5822,6810 7226,5406 8950,4525 Z"/>
       </g>
      </g>
     </g>
    </g>
   </g>
  </g>
 </g>
</svg>