<?xml version="1.0" encoding="UTF-8"?>
<!DOCTYPE svg PUBLIC "-//W3C//DTD SVG 1.1//EN" "http://www.w3.org/Graphics/SVG/1.1/DTD/svg11.dtd">
<svg version="1.2" width="218.76mm" height="218.76mm" viewBox="2188 2188 21876 21876" preserveAspectRatio="xMidYMid" fill-rule="evenodd" stroke-width="28.222" stroke-linejoin="round" xmlns="http://www.w3.org/2000/svg" xmlns:ooo="http://xml.openoffice.org/svg/export" xmlns:xlink="http://www.w3.org/1999/xlink" xmlns:presentation="http://sun.com/xmlns/staroffice/presentation" xmlns:smil="http://www.w3.org/2001/SMIL20/" xmlns:anim="urn:oasis:names:tc:opendocument:xmlns:animation:1.0" xml:space="preserve">
 <defs class="ClipPathGroup">
  <clipPath id="presentation_clip_path" clipPathUnits="userSpaceOnUse">
   <rect x="2188" y="2188" width="21876" height="21876"/>
  </clipPath>
  <clipPath id="presentation_clip_path_shrink" clipPathUnits="userSpaceOnUse">
   <rect x="2209" y="2209" width="21833" height="21833"/>
  </clipPath>
 </defs>
 <defs class="TextShapeIndex">
  <g ooo:slide="id1" ooo:id-list="id3"/>
 </defs>
 <defs class="EmbeddedBulletChars">
  <g id="bullet-char-template-57356" transform="scale(0.00048828125,-0.00048828125)">
   <path d="M 580,1141 L 1163,571 580,0 -4,571 580,1141 Z"/>
  </g>
  <g id="bullet-char-template-57354" transform="scale(0.00048828125,-0.00048828125)">
   <path d="M 8,1128 L 1137,1128 1137,0 8,0 8,1128 Z"/>
  </g>
  <g id="bullet-char-template-10146" transform="scale(0.00048828125,-0.00048828125)">
   <path d="M 174,0 L 602,739 174,1481 1456,739 174,0 Z M 1358,739 L 309,1346 659,739 1358,739 Z"/>
  </g>
  <g id="bullet-char-template-10132" transform="scale(0.00048828125,-0.00048828125)">
   <path d="M 2015,739 L 1276,0 717,0 1260,543 174,543 174,936 1260,936 717,1481 1274,1481 2015,739 Z"/>
  </g>
  <g id="bullet-char-template-10007" transform="scale(0.00048828125,-0.00048828125)">
   <path d="M 0,-2 C -7,14 -16,27 -25,37 L 356,567 C 262,823 215,952 215,954 215,979 228,992 255,992 264,992 276,990 289,987 310,991 331,999 354,1012 L 381,999 492,748 772,1049 836,1024 860,1049 C 881,1039 901,1025 922,1006 886,937 835,863 770,784 769,783 710,716 594,584 L 774,223 C 774,196 753,168 711,139 L 727,119 C 717,90 699,76 672,76 641,76 570,178 457,381 L 164,-76 C 142,-110 111,-127 72,-127 30,-127 9,-110 8,-76 1,-67 -2,-52 -2,-32 -2,-23 -1,-13 0,-2 Z"/>
  </g>
  <g id="bullet-char-template-10004" transform="scale(0.00048828125,-0.00048828125)">
   <path d="M 285,-33 C 182,-33 111,30 74,156 52,228 41,333 41,471 41,549 55,616 82,672 116,743 169,778 240,778 293,778 328,747 346,684 L 369,508 C 377,444 397,411 428,410 L 1163,1116 C 1174,1127 1196,1133 1229,1133 1271,1133 1292,1118 1292,1087 L 1292,965 C 1292,929 1282,901 1262,881 L 442,47 C 390,-6 338,-33 285,-33 Z"/>
  </g>
  <g id="bullet-char-template-9679" transform="scale(0.00048828125,-0.00048828125)">
   <path d="M 813,0 C 632,0 489,54 383,161 276,268 223,411 223,592 223,773 276,916 383,1023 489,1130 632,1184 813,1184 992,1184 1136,1130 1245,1023 1353,916 1407,772 1407,592 1407,412 1353,268 1245,161 1136,54 992,0 813,0 Z"/>
  </g>
  <g id="bullet-char-template-8226" transform="scale(0.00048828125,-0.00048828125)">
   <path d="M 346,457 C 273,457 209,483 155,535 101,586 74,649 74,723 74,796 101,859 155,911 209,963 273,989 346,989 419,989 480,963 531,910 582,859 608,796 608,723 608,648 583,586 532,535 482,483 420,457 346,457 Z"/>
  </g>
  <g id="bullet-char-template-8211" transform="scale(0.00048828125,-0.00048828125)">
   <path d="M -4,459 L 1135,459 1135,606 -4,606 -4,459 Z"/>
  </g>
  <g id="bullet-char-template-61548" transform="scale(0.00048828125,-0.00048828125)">
   <path d="M 173,740 C 173,903 231,1043 346,1159 462,1274 601,1332 765,1332 928,1332 1067,1274 1183,1159 1299,1043 1357,903 1357,740 1357,577 1299,437 1183,322 1067,206 928,148 765,148 601,148 462,206 346,322 231,437 173,577 173,740 Z"/>
  </g>
 </defs>
 <defs class="TextEmbeddedBitmaps"/>
 <g class="SlideGroup">
  <g>
   <g id="container-id1">
    <g id="id1" class="Slide" clip-path="url(#presentation_clip_path)">
     <g class="Page">
      <g class="com.sun.star.drawing.ClosedBezierShape">
       <g id="id3">
        <rect class="BoundingBox" stroke="none" fill="none" x="2188" y="2188" width="21877" height="21877"/>
        <path fill="rgb(0,0,0)" stroke="none" d="M 13126,2188 C 11112,2188 9401,2647 7657,3653 5913,4660 4660,5913 3653,7657 2647,9401 2188,11112 2188,13126 2188,15140 2647,16851 3653,18595 4660,20339 5913,21592 7657,22599 9401,23605 11112,24064 13126,24064 15140,24064 16851,23605 18595,22599 20339,21592 21592,20339 22599,18595 23605,16851 24064,15140 24064,13126 24064,11112 23605,9401 22599,7657 21592,5913 20339,4660 18595,3653 16851,2647 15140,2188 13126,2188 Z M 13126,4376 C 14737,4376 16106,4742 17501,5548 18896,6353 19899,7356 20704,8751 21510,10146 21876,11515 21876,13126 21876,13318 21870,13481 21857,13673 L 20755,13673 19689,13673 19689,12579 20763,12579 C 20675,11368 20365,10357 19758,9306 19053,8085 18176,7208 16955,6503 15901,5895 14887,5584 13673,5497 L 13673,6563 13673,7110 12579,7110 12579,6563 12579,5489 C 11368,5577 10357,5887 9306,6494 8085,7199 7208,8076 6503,9297 5895,10351 5584,11365 5497,12579 L 6563,12579 6563,13673 5489,13673 4403,13673 C 4388,13481 4379,13319 4376,13126 4376,11515 4742,10146 5548,8751 6353,7356 7356,6353 8751,5548 10146,4742 11515,4376 13126,4376 Z M 17766,8486 L 17379,9646 14181,12844 C 14208,12941 14219,13026 14220,13126 14220,13327 14174,13499 14073,13673 13973,13847 13847,13973 13673,14073 13499,14174 13327,14220 13126,14220 12925,14220 12753,14174 12579,14073 12405,13973 12279,13847 12179,13673 12078,13499 12032,13327 12032,13126 12032,12925 12078,12753 12179,12579 12279,12405 12405,12279 12579,12179 12753,12078 12925,12032 13126,12032 13226,12033 13311,12044 13408,12071 L 16606,8873 17766,8486 Z M 10013,14186 C 10001,14227 9992,14261 9983,14303 9987,14284 9990,14267 9994,14248 10000,14226 10006,14207 10013,14186 Z M 11092,16239 C 11133,16251 11168,16260 11210,16269 11190,16265 11174,16262 11154,16258 11132,16252 11114,16246 11092,16239 Z"/>
       </g>
      </g>
     </g>
    </g>
   </g>
  </g>
 </g>
</svg>