<?xml version="1.0" encoding="UTF-8"?>
<!DOCTYPE svg PUBLIC "-//W3C//DTD SVG 1.1//EN" "http://www.w3.org/Graphics/SVG/1.1/DTD/svg11.dtd">
<svg version="1.2" width="262.51mm" height="178.76mm" viewBox="0 820 26251 17876" preserveAspectRatio="xMidYMid" fill-rule="evenodd" stroke-width="28.222" stroke-linejoin="round" xmlns="http://www.w3.org/2000/svg" xmlns:ooo="http://xml.openoffice.org/svg/export" xmlns:xlink="http://www.w3.org/1999/xlink" xmlns:presentation="http://sun.com/xmlns/staroffice/presentation" xmlns:smil="http://www.w3.org/2001/SMIL20/" xmlns:anim="urn:oasis:names:tc:opendocument:xmlns:animation:1.0" xml:space="preserve">
 <defs class="ClipPathGroup">
  <clipPath id="presentation_clip_path" clipPathUnits="userSpaceOnUse">
   <rect x="0" y="820" width="26251" height="17876"/>
  </clipPath>
  <clipPath id="presentation_clip_path_shrink" clipPathUnits="userSpaceOnUse">
   <rect x="26" y="837" width="26199" height="17841"/>
  </clipPath>
 </defs>
 <defs class="TextShapeIndex">
  <g ooo:slide="id1" ooo:id-list="id3 id4 id5 id6 id7 id8 id9 id10 id11 id12 id13"/>
 </defs>
 <defs class="EmbeddedBulletChars">
  <g id="bullet-char-template-57356" transform="scale(0.00048828125,-0.00048828125)">
   <path d="M 580,1141 L 1163,571 580,0 -4,571 580,1141 Z"/>
  </g>
  <g id="bullet-char-template-57354" transform="scale(0.00048828125,-0.00048828125)">
   <path d="M 8,1128 L 1137,1128 1137,0 8,0 8,1128 Z"/>
  </g>
  <g id="bullet-char-template-10146" transform="scale(0.00048828125,-0.00048828125)">
   <path d="M 174,0 L 602,739 174,1481 1456,739 174,0 Z M 1358,739 L 309,1346 659,739 1358,739 Z"/>
  </g>
  <g id="bullet-char-template-10132" transform="scale(0.00048828125,-0.00048828125)">
   <path d="M 2015,739 L 1276,0 717,0 1260,543 174,543 174,936 1260,936 717,1481 1274,1481 2015,739 Z"/>
  </g>
  <g id="bullet-char-template-10007" transform="scale(0.00048828125,-0.00048828125)">
   <path d="M 0,-2 C -7,14 -16,27 -25,37 L 356,567 C 262,823 215,952 215,954 215,979 228,992 255,992 264,992 276,990 289,987 310,991 331,999 354,1012 L 381,999 492,748 772,1049 836,1024 860,1049 C 881,1039 901,1025 922,1006 886,937 835,863 770,784 769,783 710,716 594,584 L 774,223 C 774,196 753,168 711,139 L 727,119 C 717,90 699,76 672,76 641,76 570,178 457,381 L 164,-76 C 142,-110 111,-127 72,-127 30,-127 9,-110 8,-76 1,-67 -2,-52 -2,-32 -2,-23 -1,-13 0,-2 Z"/>
  </g>
  <g id="bullet-char-template-10004" transform="scale(0.00048828125,-0.00048828125)">
   <path d="M 285,-33 C 182,-33 111,30 74,156 52,228 41,333 41,471 41,549 55,616 82,672 116,743 169,778 240,778 293,778 328,747 346,684 L 369,508 C 377,444 397,411 428,410 L 1163,1116 C 1174,1127 1196,1133 1229,1133 1271,1133 1292,1118 1292,1087 L 1292,965 C 1292,929 1282,901 1262,881 L 442,47 C 390,-6 338,-33 285,-33 Z"/>
  </g>
  <g id="bullet-char-template-9679" transform="scale(0.00048828125,-0.00048828125)">
   <path d="M 813,0 C 632,0 489,54 383,161 276,268 223,411 223,592 223,773 276,916 383,1023 489,1130 632,1184 813,1184 992,1184 1136,1130 1245,1023 1353,916 1407,772 1407,592 1407,412 1353,268 1245,161 1136,54 992,0 813,0 Z"/>
  </g>
  <g id="bullet-char-template-8226" transform="scale(0.00048828125,-0.00048828125)">
   <path d="M 346,457 C 273,457 209,483 155,535 101,586 74,649 74,723 74,796 101,859 155,911 209,963 273,989 346,989 419,989 480,963 531,910 582,859 608,796 608,723 608,648 583,586 532,535 482,483 420,457 346,457 Z"/>
  </g>
  <g id="bullet-char-template-8211" transform="scale(0.00048828125,-0.00048828125)">
   <path d="M -4,459 L 1135,459 1135,606 -4,606 -4,459 Z"/>
  </g>
  <g id="bullet-char-template-61548" transform="scale(0.00048828125,-0.00048828125)">
   <path d="M 173,740 C 173,903 231,1043 346,1159 462,1274 601,1332 765,1332 928,1332 1067,1274 1183,1159 1299,1043 1357,903 1357,740 1357,577 1299,437 1183,322 1067,206 928,148 765,148 601,148 462,206 346,322 231,437 173,577 173,740 Z"/>
  </g>
 </defs>
 <defs class="TextEmbeddedBitmaps"/>
 <g class="SlideGroup">
  <g>
   <g id="container-id1">
    <g id="id1" class="Slide" clip-path="url(#presentation_clip_path)">
     <g class="Page">
      <g class="com.sun.star.drawing.ClosedBezierShape">
       <g id="id3">
        <rect class="BoundingBox" stroke="none" fill="none" x="0" y="17053" width="26252" height="1644"/>
        <path fill="rgb(0,0,0)" stroke="none" d="M 25431,18696 L 820,18696 C 367,18696 0,18328 0,17875 0,17422 367,17054 820,17054 L 25431,17054 C 25884,17054 26251,17422 26251,17875 26251,18328 25884,18696 25431,18696 Z"/>
       </g>
      </g>
      <g class="com.sun.star.drawing.ClosedBezierShape">
       <g id="id4">
        <rect class="BoundingBox" stroke="none" fill="none" x="12305" y="820" width="1643" height="3283"/>
        <path fill="rgb(0,0,0)" stroke="none" d="M 13126,4102 C 12672,4102 12305,3735 12305,3282 L 12305,1641 C 12305,1187 12672,820 13126,820 13580,820 13947,1187 13947,1641 L 13947,3282 C 13947,3735 13580,4102 13126,4102 Z"/>
       </g>
      </g>
      <g class="com.sun.star.drawing.ClosedBezierShape">
       <g id="id5">
        <rect class="BoundingBox" stroke="none" fill="none" x="12305" y="820" width="1643" height="3283"/>
        <path fill="rgb(0,0,0)" stroke="none" d="M 13126,4102 C 12672,4102 12305,3735 12305,3282 L 12305,1641 C 12305,1187 12672,820 13126,820 13580,820 13947,1187 13947,1641 L 13947,3282 C 13947,3735 13580,4102 13126,4102 Z"/>
       </g>
      </g>
      <g class="com.sun.star.drawing.ClosedBezierShape">
       <g id="id6">
        <rect class="BoundingBox" stroke="none" fill="none" x="21328" y="11484" width="3283" height="1643"/>
        <path fill="rgb(0,0,0)" stroke="none" d="M 23790,13126 L 22149,13126 C 21695,13126 21328,12758 21328,12305 21328,11852 21695,11484 22149,11484 L 23790,11484 C 24243,11484 24610,11852 24610,12305 24610,12758 24243,13126 23790,13126 Z"/>
       </g>
      </g>
      <g class="com.sun.star.drawing.ClosedBezierShape">
       <g id="id7">
        <rect class="BoundingBox" stroke="none" fill="none" x="1641" y="11484" width="3283" height="1643"/>
        <path fill="rgb(0,0,0)" stroke="none" d="M 4103,13126 L 2462,13126 C 2008,13126 1641,12758 1641,12305 1641,11852 2008,11484 2462,11484 L 4103,11484 C 4556,11484 4923,11852 4923,12305 4923,12758 4556,13126 4103,13126 Z"/>
       </g>
      </g>
      <g class="com.sun.star.drawing.ClosedBezierShape">
       <g id="id8">
        <rect class="BoundingBox" stroke="none" fill="none" x="21328" y="11484" width="3283" height="1643"/>
        <path fill="rgb(0,0,0)" stroke="none" d="M 23790,13126 L 22149,13126 C 21695,13126 21328,12758 21328,12305 21328,11852 21695,11484 22149,11484 L 23790,11484 C 24243,11484 24610,11852 24610,12305 24610,12758 24243,13126 23790,13126 Z"/>
       </g>
      </g>
      <g class="com.sun.star.drawing.ClosedBezierShape">
       <g id="id9">
        <rect class="BoundingBox" stroke="none" fill="none" x="1641" y="11484" width="3283" height="1643"/>
        <path fill="rgb(0,0,0)" stroke="none" d="M 4103,13126 L 2462,13126 C 2008,13126 1641,12758 1641,12305 1641,11852 2008,11484 2462,11484 L 4103,11484 C 4556,11484 4923,11852 4923,12305 4923,12758 4556,13126 4103,13126 Z"/>
       </g>
      </g>
      <g class="com.sun.star.drawing.ClosedBezierShape">
       <g id="id10">
        <rect class="BoundingBox" stroke="none" fill="none" x="18685" y="3944" width="2803" height="2803"/>
        <path fill="rgb(0,0,0)" stroke="none" d="M 19506,6746 C 19296,6746 19086,6665 18925,6505 18605,6185 18605,5665 18925,5345 L 20086,4184 C 20406,3864 20926,3864 21246,4184 21567,4505 21567,5024 21246,5345 L 20086,6505 C 19926,6665 19716,6746 19506,6746 Z"/>
       </g>
      </g>
      <g class="com.sun.star.drawing.ClosedBezierShape">
       <g id="id11">
        <rect class="BoundingBox" stroke="none" fill="none" x="4764" y="3944" width="2803" height="2803"/>
        <path fill="rgb(0,0,0)" stroke="none" d="M 6745,6746 C 6535,6746 6325,6665 6165,6505 L 5004,5345 C 4684,5024 4684,4505 5004,4184 5325,3864 5844,3864 6165,4184 L 7325,5345 C 7646,5665 7646,6185 7325,6505 7165,6665 6955,6746 6745,6746 Z"/>
       </g>
      </g>
      <g class="com.sun.star.drawing.ClosedBezierShape">
       <g id="id12">
        <rect class="BoundingBox" stroke="none" fill="none" x="4764" y="3944" width="2803" height="2803"/>
        <path fill="rgb(0,0,0)" stroke="none" d="M 6745,6746 C 6535,6746 6325,6665 6165,6505 L 5004,5345 C 4684,5024 4684,4505 5004,4184 5325,3864 5844,3864 6165,4184 L 7325,5345 C 7646,5665 7646,6185 7325,6505 7165,6665 6955,6746 6745,6746 Z"/>
       </g>
      </g>
      <g class="com.sun.star.drawing.ClosedBezierShape">
       <g id="id13">
        <rect class="BoundingBox" stroke="none" fill="none" x="6561" y="5742" width="13128" height="9026"/>
        <path fill="rgb(0,0,0)" stroke="none" d="M 19211,14767 C 19519,14007 19688,13176 19688,12305 19688,8680 16750,5742 13125,5742 9500,5742 6562,8680 6562,12305 6562,13176 6731,14007 7039,14767 L 19211,14767 Z"/>
       </g>
      </g>
     </g>
    </g>
   </g>
  </g>
 </g>
</svg>