<?xml version="1.0" encoding="UTF-8"?>
<!DOCTYPE svg PUBLIC "-//W3C//DTD SVG 1.1//EN" "http://www.w3.org/Graphics/SVG/1.1/DTD/svg11.dtd">
<svg version="1.2" width="139.47mm" height="237.9mm" viewBox="9023 820 13947 23790" preserveAspectRatio="xMidYMid" fill-rule="evenodd" stroke-width="28.222" stroke-linejoin="round" xmlns="http://www.w3.org/2000/svg" xmlns:ooo="http://xml.openoffice.org/svg/export" xmlns:xlink="http://www.w3.org/1999/xlink" xmlns:presentation="http://sun.com/xmlns/staroffice/presentation" xmlns:smil="http://www.w3.org/2001/SMIL20/" xmlns:anim="urn:oasis:names:tc:opendocument:xmlns:animation:1.0" xml:space="preserve">
 <defs class="ClipPathGroup">
  <clipPath id="presentation_clip_path" clipPathUnits="userSpaceOnUse">
   <rect x="9023" y="820" width="13947" height="23790"/>
  </clipPath>
  <clipPath id="presentation_clip_path_shrink" clipPathUnits="userSpaceOnUse">
   <rect x="9036" y="843" width="13920" height="23743"/>
  </clipPath>
 </defs>
 <defs class="TextShapeIndex">
  <g ooo:slide="id1" ooo:id-list="id3 id4 id5 id6 id7"/>
 </defs>
 <defs class="EmbeddedBulletChars">
  <g id="bullet-char-template-57356" transform="scale(0.00048828125,-0.00048828125)">
   <path d="M 580,1141 L 1163,571 580,0 -4,571 580,1141 Z"/>
  </g>
  <g id="bullet-char-template-57354" transform="scale(0.00048828125,-0.00048828125)">
   <path d="M 8,1128 L 1137,1128 1137,0 8,0 8,1128 Z"/>
  </g>
  <g id="bullet-char-template-10146" transform="scale(0.00048828125,-0.00048828125)">
   <path d="M 174,0 L 602,739 174,1481 1456,739 174,0 Z M 1358,739 L 309,1346 659,739 1358,739 Z"/>
  </g>
  <g id="bullet-char-template-10132" transform="scale(0.00048828125,-0.00048828125)">
   <path d="M 2015,739 L 1276,0 717,0 1260,543 174,543 174,936 1260,936 717,1481 1274,1481 2015,739 Z"/>
  </g>
  <g id="bullet-char-template-10007" transform="scale(0.00048828125,-0.00048828125)">
   <path d="M 0,-2 C -7,14 -16,27 -25,37 L 356,567 C 262,823 215,952 215,954 215,979 228,992 255,992 264,992 276,990 289,987 310,991 331,999 354,1012 L 381,999 492,748 772,1049 836,1024 860,1049 C 881,1039 901,1025 922,1006 886,937 835,863 770,784 769,783 710,716 594,584 L 774,223 C 774,196 753,168 711,139 L 727,119 C 717,90 699,76 672,76 641,76 570,178 457,381 L 164,-76 C 142,-110 111,-127 72,-127 30,-127 9,-110 8,-76 1,-67 -2,-52 -2,-32 -2,-23 -1,-13 0,-2 Z"/>
  </g>
  <g id="bullet-char-template-10004" transform="scale(0.00048828125,-0.00048828125)">
   <path d="M 285,-33 C 182,-33 111,30 74,156 52,228 41,333 41,471 41,549 55,616 82,672 116,743 169,778 240,778 293,778 328,747 346,684 L 369,508 C 377,444 397,411 428,410 L 1163,1116 C 1174,1127 1196,1133 1229,1133 1271,1133 1292,1118 1292,1087 L 1292,965 C 1292,929 1282,901 1262,881 L 442,47 C 390,-6 338,-33 285,-33 Z"/>
  </g>
  <g id="bullet-char-template-9679" transform="scale(0.00048828125,-0.00048828125)">
   <path d="M 813,0 C 632,0 489,54 383,161 276,268 223,411 223,592 223,773 276,916 383,1023 489,1130 632,1184 813,1184 992,1184 1136,1130 1245,1023 1353,916 1407,772 1407,592 1407,412 1353,268 1245,161 1136,54 992,0 813,0 Z"/>
  </g>
  <g id="bullet-char-template-8226" transform="scale(0.00048828125,-0.00048828125)">
   <path d="M 346,457 C 273,457 209,483 155,535 101,586 74,649 74,723 74,796 101,859 155,911 209,963 273,989 346,989 419,989 480,963 531,910 582,859 608,796 608,723 608,648 583,586 532,535 482,483 420,457 346,457 Z"/>
  </g>
  <g id="bullet-char-template-8211" transform="scale(0.00048828125,-0.00048828125)">
   <path d="M -4,459 L 1135,459 1135,606 -4,606 -4,459 Z"/>
  </g>
  <g id="bullet-char-template-61548" transform="scale(0.00048828125,-0.00048828125)">
   <path d="M 173,740 C 173,903 231,1043 346,1159 462,1274 601,1332 765,1332 928,1332 1067,1274 1183,1159 1299,1043 1357,903 1357,740 1357,577 1299,437 1183,322 1067,206 928,148 765,148 601,148 462,206 346,322 231,437 173,577 173,740 Z"/>
  </g>
 </defs>
 <defs class="TextEmbeddedBitmaps"/>
 <g class="SlideGroup">
  <g>
   <g id="container-id1">
    <g id="id1" class="Slide" clip-path="url(#presentation_clip_path)">
     <g class="Page">
      <g class="com.sun.star.drawing.ClosedBezierShape">
       <g id="id3">
        <rect class="BoundingBox" stroke="none" fill="none" x="10664" y="820" width="4924" height="22971"/>
        <path fill="rgb(0,0,0)" stroke="none" d="M 13125,820 C 12672,820 12287,923 11895,1150 11502,1376 11220,1658 10994,2051 10767,2443 10664,2828 10664,3281 L 10664,21329 C 10664,21782 10767,22167 10994,22559 11220,22952 11502,23233 11895,23460 12287,23687 12672,23790 13125,23790 13579,23790 13964,23687 14356,23460 14749,23233 15031,22952 15257,22559 15484,22167 15587,21782 15587,21329 L 15587,3281 C 15587,2828 15484,2443 15257,2051 15031,1658 14749,1376 14356,1150 13964,923 13579,820 13125,820 Z M 13946,11386 C 13946,11235 13912,11107 13836,10976 13760,10845 13666,10751 13536,10676 13405,10600 13276,10566 13125,10566 12974,10566 12846,10600 12715,10676 12584,10751 12490,10845 12415,10976 12339,11107 12305,11235 12305,11386 L 12305,3035 C 12305,2884 12339,2756 12415,2625 12490,2494 12584,2400 12715,2324 12846,2249 12974,2215 13125,2215 13276,2215 13405,2249 13536,2324 13666,2400 13760,2494 13836,2625 13912,2756 13946,2884 13946,3035 L 13946,11386 Z"/>
       </g>
      </g>
      <g class="com.sun.star.drawing.ClosedBezierShape">
       <g id="id4">
        <rect class="BoundingBox" stroke="none" fill="none" x="12305" y="10566" width="1643" height="11585"/>
        <path fill="rgb(0,0,0)" stroke="none" d="M 13947,11386 L 13947,21329 C 13947,21480 13912,21609 13837,21740 13761,21870 13667,21964 13536,22040 13405,22115 13277,22150 13126,22150 12975,22150 12846,22115 12715,22040 12585,21964 12491,21870 12415,21740 12339,21609 12305,21480 12305,21329 L 12305,11386 C 12305,11235 12339,11107 12415,10976 12491,10845 12585,10751 12715,10676 12846,10600 12975,10566 13126,10566 13277,10566 13405,10600 13536,10676 13667,10751 13761,10845 13837,10976 13912,11107 13947,11235 13947,11386 Z"/>
       </g>
      </g>
      <g class="com.sun.star.drawing.ClosedBezierShape">
       <g id="id5">
        <rect class="BoundingBox" stroke="none" fill="none" x="9023" y="16406" width="8205" height="8205"/>
        <path fill="rgb(0,0,0)" stroke="none" d="M 17227,20508 C 17227,21263 17055,21905 16678,22559 16300,23213 15830,23683 15176,24061 14522,24438 13880,24610 13125,24610 12370,24610 11728,24438 11074,24061 10420,23683 9950,23213 9573,22559 9195,21905 9023,21263 9023,20508 9023,19753 9195,19111 9573,18457 9950,17803 10420,17333 11074,16956 11728,16578 12370,16406 13125,16406 13880,16406 14522,16578 15176,16956 15830,17333 16300,17803 16678,18457 17055,19111 17227,19753 17227,20508 Z"/>
       </g>
      </g>
      <g class="com.sun.star.drawing.ClosedBezierShape">
       <g id="id6">
        <rect class="BoundingBox" stroke="none" fill="none" x="18047" y="3281" width="4924" height="4924"/>
        <path fill="rgb(0,0,0)" stroke="none" d="M 20508,8204 C 20055,8204 19670,8101 19278,7874 18885,7648 18603,7366 18377,6973 18150,6581 18047,6196 18047,5742 18047,5289 18150,4904 18377,4512 18603,4119 18885,3837 19278,3611 19670,3384 20055,3281 20508,3281 20962,3281 21347,3384 21739,3611 22132,3837 22414,4119 22640,4512 22867,4904 22970,5289 22970,5742 22970,6196 22867,6581 22640,6973 22414,7366 22132,7648 21739,7874 21347,8101 20962,8204 20508,8204 Z M 20508,4922 C 20357,4922 20229,4956 20098,5032 19967,5107 19873,5201 19798,5332 19722,5463 19688,5591 19688,5742 19688,5893 19722,6022 19798,6153 19873,6283 19967,6377 20098,6453 20229,6529 20357,6563 20508,6563 20659,6563 20788,6529 20919,6453 21049,6377 21143,6283 21219,6153 21295,6022 21329,5893 21329,5742 21329,5591 21295,5463 21219,5332 21143,5201 21049,5107 20919,5032 20788,4956 20659,4922 20508,4922 Z"/>
       </g>
      </g>
      <g class="com.sun.star.drawing.ClosedBezierShape">
       <g id="id7">
        <rect class="BoundingBox" stroke="none" fill="none" x="12305" y="10566" width="1643" height="10190"/>
        <path fill="rgb(0,0,0)" stroke="none" d="M 13947,11386 L 13947,19935 C 13947,20086 13912,20214 13837,20345 13761,20476 13667,20570 13536,20645 13405,20721 13277,20755 13126,20755 12975,20755 12846,20721 12715,20645 12585,20570 12491,20476 12415,20345 12339,20214 12305,20086 12305,19935 L 12305,11386 C 12305,11235 12339,11107 12415,10976 12491,10845 12585,10751 12715,10676 12846,10600 12975,10566 13126,10566 13277,10566 13405,10600 13536,10676 13667,10751 13761,10845 13837,10976 13912,11107 13947,11235 13947,11386 Z"/>
       </g>
      </g>
     </g>
    </g>
   </g>
  </g>
 </g>
</svg>