<?xml version="1.0" encoding="UTF-8"?>
<!DOCTYPE svg PUBLIC "-//W3C//DTD SVG 1.1//EN" "http://www.w3.org/Graphics/SVG/1.1/DTD/svg11.dtd">
<svg version="1.2" width="249.65mm" height="249.91mm" viewBox="630 630 24965 24991" preserveAspectRatio="xMidYMid" fill-rule="evenodd" stroke-width="28.222" stroke-linejoin="round" xmlns="http://www.w3.org/2000/svg" xmlns:ooo="http://xml.openoffice.org/svg/export" xmlns:xlink="http://www.w3.org/1999/xlink" xmlns:presentation="http://sun.com/xmlns/staroffice/presentation" xmlns:smil="http://www.w3.org/2001/SMIL20/" xmlns:anim="urn:oasis:names:tc:opendocument:xmlns:animation:1.0" xml:space="preserve">
 <defs class="ClipPathGroup">
  <clipPath id="presentation_clip_path" clipPathUnits="userSpaceOnUse">
   <rect x="630" y="630" width="24965" height="24991"/>
  </clipPath>
  <clipPath id="presentation_clip_path_shrink" clipPathUnits="userSpaceOnUse">
   <rect x="654" y="654" width="24916" height="24942"/>
  </clipPath>
 </defs>
 <defs class="TextShapeIndex">
  <g ooo:slide="id1" ooo:id-list="id3 id4 id5 id6 id7 id8 id9 id10 id11"/>
 </defs>
 <defs class="EmbeddedBulletChars">
  <g id="bullet-char-template-57356" transform="scale(0.00048828125,-0.00048828125)">
   <path d="M 580,1141 L 1163,571 580,0 -4,571 580,1141 Z"/>
  </g>
  <g id="bullet-char-template-57354" transform="scale(0.00048828125,-0.00048828125)">
   <path d="M 8,1128 L 1137,1128 1137,0 8,0 8,1128 Z"/>
  </g>
  <g id="bullet-char-template-10146" transform="scale(0.00048828125,-0.00048828125)">
   <path d="M 174,0 L 602,739 174,1481 1456,739 174,0 Z M 1358,739 L 309,1346 659,739 1358,739 Z"/>
  </g>
  <g id="bullet-char-template-10132" transform="scale(0.00048828125,-0.00048828125)">
   <path d="M 2015,739 L 1276,0 717,0 1260,543 174,543 174,936 1260,936 717,1481 1274,1481 2015,739 Z"/>
  </g>
  <g id="bullet-char-template-10007" transform="scale(0.00048828125,-0.00048828125)">
   <path d="M 0,-2 C -7,14 -16,27 -25,37 L 356,567 C 262,823 215,952 215,954 215,979 228,992 255,992 264,992 276,990 289,987 310,991 331,999 354,1012 L 381,999 492,748 772,1049 836,1024 860,1049 C 881,1039 901,1025 922,1006 886,937 835,863 770,784 769,783 710,716 594,584 L 774,223 C 774,196 753,168 711,139 L 727,119 C 717,90 699,76 672,76 641,76 570,178 457,381 L 164,-76 C 142,-110 111,-127 72,-127 30,-127 9,-110 8,-76 1,-67 -2,-52 -2,-32 -2,-23 -1,-13 0,-2 Z"/>
  </g>
  <g id="bullet-char-template-10004" transform="scale(0.00048828125,-0.00048828125)">
   <path d="M 285,-33 C 182,-33 111,30 74,156 52,228 41,333 41,471 41,549 55,616 82,672 116,743 169,778 240,778 293,778 328,747 346,684 L 369,508 C 377,444 397,411 428,410 L 1163,1116 C 1174,1127 1196,1133 1229,1133 1271,1133 1292,1118 1292,1087 L 1292,965 C 1292,929 1282,901 1262,881 L 442,47 C 390,-6 338,-33 285,-33 Z"/>
  </g>
  <g id="bullet-char-template-9679" transform="scale(0.00048828125,-0.00048828125)">
   <path d="M 813,0 C 632,0 489,54 383,161 276,268 223,411 223,592 223,773 276,916 383,1023 489,1130 632,1184 813,1184 992,1184 1136,1130 1245,1023 1353,916 1407,772 1407,592 1407,412 1353,268 1245,161 1136,54 992,0 813,0 Z"/>
  </g>
  <g id="bullet-char-template-8226" transform="scale(0.00048828125,-0.00048828125)">
   <path d="M 346,457 C 273,457 209,483 155,535 101,586 74,649 74,723 74,796 101,859 155,911 209,963 273,989 346,989 419,989 480,963 531,910 582,859 608,796 608,723 608,648 583,586 532,535 482,483 420,457 346,457 Z"/>
  </g>
  <g id="bullet-char-template-8211" transform="scale(0.00048828125,-0.00048828125)">
   <path d="M -4,459 L 1135,459 1135,606 -4,606 -4,459 Z"/>
  </g>
  <g id="bullet-char-template-61548" transform="scale(0.00048828125,-0.00048828125)">
   <path d="M 173,740 C 173,903 231,1043 346,1159 462,1274 601,1332 765,1332 928,1332 1067,1274 1183,1159 1299,1043 1357,903 1357,740 1357,577 1299,437 1183,322 1067,206 928,148 765,148 601,148 462,206 346,322 231,437 173,577 173,740 Z"/>
  </g>
 </defs>
 <defs class="TextEmbeddedBitmaps"/>
 <g class="SlideGroup">
  <g>
   <g id="container-id1">
    <g id="id1" class="Slide" clip-path="url(#presentation_clip_path)">
     <g class="Page">
      <g class="com.sun.star.drawing.ClosedBezierShape">
       <g id="id3">
        <rect class="BoundingBox" stroke="none" fill="none" x="6510" y="6510" width="13233" height="13233"/>
        <path fill="rgb(0,0,0)" stroke="none" d="M 13126,6510 C 9476,6510 6510,9476 6510,13125 6510,16775 9476,19741 13126,19741 16775,19741 19741,16775 19741,13125 19741,9476 16775,6510 13126,6510 Z"/>
       </g>
      </g>
      <g class="com.sun.star.drawing.ClosedBezierShape">
       <g id="id4">
        <rect class="BoundingBox" stroke="none" fill="none" x="12259" y="630" width="1736" height="4517"/>
        <path fill="rgb(0,0,0)" stroke="none" d="M 13126,5146 C 13599,5146 13993,4752 13993,4280 L 13993,1496 C 13993,1024 13599,630 13126,630 12653,630 12259,1024 12259,1496 L 12259,4280 C 12259,4778 12653,5146 13126,5146 Z"/>
       </g>
      </g>
      <g class="com.sun.star.drawing.ClosedBezierShape">
       <g id="id5">
        <rect class="BoundingBox" stroke="none" fill="none" x="4049" y="4049" width="3690" height="3697"/>
        <path fill="rgb(0,0,0)" stroke="none" d="M 6274,7482 C 6432,7640 6668,7745 6878,7745 7088,7745 7325,7666 7482,7482 7823,7141 7823,6616 7482,6274 L 5513,4305 C 5171,3964 4646,3964 4305,4305 3964,4646 3964,5171 4305,5513 L 6274,7482 Z"/>
       </g>
      </g>
      <g class="com.sun.star.drawing.ClosedBezierShape">
       <g id="id6">
        <rect class="BoundingBox" stroke="none" fill="none" x="630" y="12259" width="4517" height="1736"/>
        <path fill="rgb(0,0,0)" stroke="none" d="M 5146,13126 C 5146,12653 4752,12259 4280,12259 L 1496,12259 C 1024,12259 630,12653 630,13126 630,13599 1024,13993 1496,13993 L 4280,13993 C 4778,13993 5146,13599 5146,13126 Z"/>
       </g>
      </g>
      <g class="com.sun.star.drawing.ClosedBezierShape">
       <g id="id7">
        <rect class="BoundingBox" stroke="none" fill="none" x="4049" y="18513" width="3690" height="3697"/>
        <path fill="rgb(0,0,0)" stroke="none" d="M 6274,18769 L 4305,20738 C 3964,21080 3964,21605 4305,21946 4463,22104 4699,22209 4909,22209 5119,22209 5355,22130 5513,21946 L 7482,19977 C 7823,19635 7823,19110 7482,18769 7167,18428 6616,18428 6274,18769 Z"/>
       </g>
      </g>
      <g class="com.sun.star.drawing.ClosedBezierShape">
       <g id="id8">
        <rect class="BoundingBox" stroke="none" fill="none" x="12259" y="21105" width="1736" height="4517"/>
        <path fill="rgb(0,0,0)" stroke="none" d="M 13126,21105 C 12653,21105 12259,21499 12259,21971 L 12259,24755 C 12259,25227 12653,25621 13126,25621 13599,25621 13993,25227 13993,24755 L 13993,21971 C 13993,21473 13599,21105 13126,21105 Z"/>
       </g>
      </g>
      <g class="com.sun.star.drawing.ClosedBezierShape">
       <g id="id9">
        <rect class="BoundingBox" stroke="none" fill="none" x="18512" y="18513" width="3691" height="3697"/>
        <path fill="rgb(0,0,0)" stroke="none" d="M 19977,18769 C 19635,18428 19110,18428 18769,18769 18428,19110 18428,19635 18769,19977 L 20738,21946 C 20896,22104 21132,22209 21342,22209 21552,22209 21789,22130 21946,21946 22287,21605 22287,21080 21946,20738 L 19977,18769 Z"/>
       </g>
      </g>
      <g class="com.sun.star.drawing.ClosedBezierShape">
       <g id="id10">
        <rect class="BoundingBox" stroke="none" fill="none" x="21079" y="12259" width="4518" height="1736"/>
        <path fill="rgb(0,0,0)" stroke="none" d="M 24729,12259 L 21945,12259 C 21473,12259 21079,12653 21079,13126 21079,13599 21473,13993 21945,13993 L 24729,13993 C 25201,13993 25595,13599 25595,13126 25595,12653 25201,12259 24729,12259 Z"/>
       </g>
      </g>
      <g class="com.sun.star.drawing.ClosedBezierShape">
       <g id="id11">
        <rect class="BoundingBox" stroke="none" fill="none" x="18512" y="4049" width="3691" height="3697"/>
        <path fill="rgb(0,0,0)" stroke="none" d="M 19373,7745 C 19583,7745 19819,7666 19977,7482 L 21946,5513 C 22287,5171 22287,4646 21946,4305 21605,3964 21080,3964 20738,4305 L 18769,6274 C 18428,6616 18428,7141 18769,7482 18927,7666 19137,7745 19373,7745 Z"/>
       </g>
      </g>
     </g>
    </g>
   </g>
  </g>
 </g>
</svg>