<?xml version="1.0" encoding="UTF-8"?>
<!DOCTYPE svg PUBLIC "-//W3C//DTD SVG 1.1//EN" "http://www.w3.org/Graphics/SVG/1.1/DTD/svg11.dtd">
<svg version="1.2" width="249.65mm" height="169.05mm" viewBox="656 4673 24965 16905" preserveAspectRatio="xMidYMid" fill-rule="evenodd" stroke-width="28.222" stroke-linejoin="round" xmlns="http://www.w3.org/2000/svg" xmlns:ooo="http://xml.openoffice.org/svg/export" xmlns:xlink="http://www.w3.org/1999/xlink" xmlns:presentation="http://sun.com/xmlns/staroffice/presentation" xmlns:smil="http://www.w3.org/2001/SMIL20/" xmlns:anim="urn:oasis:names:tc:opendocument:xmlns:animation:1.0" xml:space="preserve">
 <defs class="ClipPathGroup">
  <clipPath id="presentation_clip_path" clipPathUnits="userSpaceOnUse">
   <rect x="656" y="4673" width="24965" height="16905"/>
  </clipPath>
  <clipPath id="presentation_clip_path_shrink" clipPathUnits="userSpaceOnUse">
   <rect x="680" y="4689" width="24916" height="16872"/>
  </clipPath>
 </defs>
 <defs class="TextShapeIndex">
  <g ooo:slide="id1" ooo:id-list="id3 id4 id5 id6 id7 id8 id9"/>
 </defs>
 <defs class="EmbeddedBulletChars">
  <g id="bullet-char-template-57356" transform="scale(0.00048828125,-0.00048828125)">
   <path d="M 580,1141 L 1163,571 580,0 -4,571 580,1141 Z"/>
  </g>
  <g id="bullet-char-template-57354" transform="scale(0.00048828125,-0.00048828125)">
   <path d="M 8,1128 L 1137,1128 1137,0 8,0 8,1128 Z"/>
  </g>
  <g id="bullet-char-template-10146" transform="scale(0.00048828125,-0.00048828125)">
   <path d="M 174,0 L 602,739 174,1481 1456,739 174,0 Z M 1358,739 L 309,1346 659,739 1358,739 Z"/>
  </g>
  <g id="bullet-char-template-10132" transform="scale(0.00048828125,-0.00048828125)">
   <path d="M 2015,739 L 1276,0 717,0 1260,543 174,543 174,936 1260,936 717,1481 1274,1481 2015,739 Z"/>
  </g>
  <g id="bullet-char-template-10007" transform="scale(0.00048828125,-0.00048828125)">
   <path d="M 0,-2 C -7,14 -16,27 -25,37 L 356,567 C 262,823 215,952 215,954 215,979 228,992 255,992 264,992 276,990 289,987 310,991 331,999 354,1012 L 381,999 492,748 772,1049 836,1024 860,1049 C 881,1039 901,1025 922,1006 886,937 835,863 770,784 769,783 710,716 594,584 L 774,223 C 774,196 753,168 711,139 L 727,119 C 717,90 699,76 672,76 641,76 570,178 457,381 L 164,-76 C 142,-110 111,-127 72,-127 30,-127 9,-110 8,-76 1,-67 -2,-52 -2,-32 -2,-23 -1,-13 0,-2 Z"/>
  </g>
  <g id="bullet-char-template-10004" transform="scale(0.00048828125,-0.00048828125)">
   <path d="M 285,-33 C 182,-33 111,30 74,156 52,228 41,333 41,471 41,549 55,616 82,672 116,743 169,778 240,778 293,778 328,747 346,684 L 369,508 C 377,444 397,411 428,410 L 1163,1116 C 1174,1127 1196,1133 1229,1133 1271,1133 1292,1118 1292,1087 L 1292,965 C 1292,929 1282,901 1262,881 L 442,47 C 390,-6 338,-33 285,-33 Z"/>
  </g>
  <g id="bullet-char-template-9679" transform="scale(0.00048828125,-0.00048828125)">
   <path d="M 813,0 C 632,0 489,54 383,161 276,268 223,411 223,592 223,773 276,916 383,1023 489,1130 632,1184 813,1184 992,1184 1136,1130 1245,1023 1353,916 1407,772 1407,592 1407,412 1353,268 1245,161 1136,54 992,0 813,0 Z"/>
  </g>
  <g id="bullet-char-template-8226" transform="scale(0.00048828125,-0.00048828125)">
   <path d="M 346,457 C 273,457 209,483 155,535 101,586 74,649 74,723 74,796 101,859 155,911 209,963 273,989 346,989 419,989 480,963 531,910 582,859 608,796 608,723 608,648 583,586 532,535 482,483 420,457 346,457 Z"/>
  </g>
  <g id="bullet-char-template-8211" transform="scale(0.00048828125,-0.00048828125)">
   <path d="M -4,459 L 1135,459 1135,606 -4,606 -4,459 Z"/>
  </g>
  <g id="bullet-char-template-61548" transform="scale(0.00048828125,-0.00048828125)">
   <path d="M 173,740 C 173,903 231,1043 346,1159 462,1274 601,1332 765,1332 928,1332 1067,1274 1183,1159 1299,1043 1357,903 1357,740 1357,577 1299,437 1183,322 1067,206 928,148 765,148 601,148 462,206 346,322 231,437 173,577 173,740 Z"/>
  </g>
 </defs>
 <defs class="TextEmbeddedBitmaps"/>
 <g class="SlideGroup">
  <g>
   <g id="container-id1">
    <g id="id1" class="Slide" clip-path="url(#presentation_clip_path)">
     <g class="Page">
      <g class="com.sun.star.drawing.ClosedBezierShape">
       <g id="id3">
        <rect class="BoundingBox" stroke="none" fill="none" x="4830" y="8820" width="8980" height="8665"/>
        <path fill="rgb(0,0,0)" stroke="none" d="M 13310,12338 C 13467,12102 13625,11892 13809,11682 13100,10001 11419,8820 9503,8820 6930,8820 4830,10920 4830,13493 4830,15173 5723,16643 7061,17484 7534,16223 8637,15278 9976,15042 10448,13598 11735,12522 13310,12338 Z"/>
       </g>
      </g>
      <g class="com.sun.star.drawing.ClosedBezierShape">
       <g id="id4">
        <rect class="BoundingBox" stroke="none" fill="none" x="8873" y="4673" width="1210" height="3178"/>
        <path fill="rgb(0,0,0)" stroke="none" d="M 9477,7850 C 9819,7850 10082,7588 10082,7246 L 10082,5277 C 10082,4936 9819,4673 9477,4673 9136,4673 8873,4936 8873,5277 L 8873,7246 C 8873,7588 9162,7850 9477,7850 Z"/>
       </g>
      </g>
      <g class="com.sun.star.drawing.ClosedBezierShape">
       <g id="id5">
        <rect class="BoundingBox" stroke="none" fill="none" x="3051" y="7067" width="2615" height="2621"/>
        <path fill="rgb(0,0,0)" stroke="none" d="M 4647,9504 C 4779,9635 4910,9687 5067,9687 5225,9687 5383,9635 5488,9504 5724,9267 5724,8873 5488,8637 L 4096,7245 C 3859,7009 3466,7009 3229,7245 2993,7482 2993,7875 3229,8112 L 4647,9504 Z"/>
       </g>
      </g>
      <g class="com.sun.star.drawing.ClosedBezierShape">
       <g id="id6">
        <rect class="BoundingBox" stroke="none" fill="none" x="656" y="12889" width="3178" height="1210"/>
        <path fill="rgb(0,0,0)" stroke="none" d="M 3833,13493 C 3833,13152 3571,12889 3229,12889 L 1260,12889 C 919,12889 656,13152 656,13493 656,13835 919,14098 1260,14098 L 3229,14098 C 3571,14098 3833,13835 3833,13493 Z"/>
       </g>
      </g>
      <g class="com.sun.star.drawing.ClosedBezierShape">
       <g id="id7">
        <rect class="BoundingBox" stroke="none" fill="none" x="3077" y="17305" width="2589" height="2620"/>
        <path fill="rgb(0,0,0)" stroke="none" d="M 4647,17482 L 3255,18874 C 3019,19110 3019,19504 3255,19741 3387,19872 3518,19924 3675,19924 3833,19924 3991,19872 4096,19741 L 5487,18349 C 5724,18112 5724,17719 5487,17482 5251,17246 4883,17246 4647,17482 Z"/>
       </g>
      </g>
      <g class="com.sun.star.drawing.ClosedBezierShape">
       <g id="id8">
        <rect class="BoundingBox" stroke="none" fill="none" x="13289" y="7067" width="2614" height="2621"/>
        <path fill="rgb(0,0,0)" stroke="none" d="M 13913,9687 C 14070,9687 14228,9635 14333,9504 L 15725,8112 C 15961,7875 15961,7482 15725,7245 15488,7009 15094,7009 14858,7245 L 13466,8637 C 13230,8873 13230,9267 13466,9504 13598,9635 13755,9687 13913,9687 Z"/>
       </g>
      </g>
      <g class="com.sun.star.drawing.ClosedBezierShape">
       <g id="id9">
        <rect class="BoundingBox" stroke="none" fill="none" x="8006" y="10920" width="17616" height="10659"/>
        <path fill="rgb(0,0,0)" stroke="none" d="M 22549,14280 C 22024,12338 20265,10920 18139,10920 16301,10920 14726,11996 14018,13545 13939,13545 13834,13519 13755,13519 12259,13519 11025,14700 10972,16196 10894,16196 10789,16170 10710,16170 9214,16170 8006,17378 8006,18874 8006,20370 9214,21578 10710,21578 L 21946,21578 C 23967,21578 25621,19924 25621,17903 25594,16065 24282,14569 22549,14280 Z"/>
       </g>
      </g>
     </g>
    </g>
   </g>
  </g>
 </g>
</svg>