<?xml version="1.0" encoding="UTF-8"?>
<!DOCTYPE svg PUBLIC "-//W3C//DTD SVG 1.1//EN" "http://www.w3.org/Graphics/SVG/1.1/DTD/svg11.dtd">
<svg version="1.2" width="242.3mm" height="249.39mm" viewBox="998 656 24230 24939" preserveAspectRatio="xMidYMid" fill-rule="evenodd" stroke-width="28.222" stroke-linejoin="round" xmlns="http://www.w3.org/2000/svg" xmlns:ooo="http://xml.openoffice.org/svg/export" xmlns:xlink="http://www.w3.org/1999/xlink" xmlns:presentation="http://sun.com/xmlns/staroffice/presentation" xmlns:smil="http://www.w3.org/2001/SMIL20/" xmlns:anim="urn:oasis:names:tc:opendocument:xmlns:animation:1.0" xml:space="preserve">
 <defs class="ClipPathGroup">
  <clipPath id="presentation_clip_path" clipPathUnits="userSpaceOnUse">
   <rect x="998" y="656" width="24230" height="24939"/>
  </clipPath>
  <clipPath id="presentation_clip_path_shrink" clipPathUnits="userSpaceOnUse">
   <rect x="1022" y="680" width="24182" height="24890"/>
  </clipPath>
 </defs>
 <defs class="TextShapeIndex">
  <g ooo:slide="id1" ooo:id-list="id3 id4 id5 id6 id7 id8"/>
 </defs>
 <defs class="EmbeddedBulletChars">
  <g id="bullet-char-template-57356" transform="scale(0.00048828125,-0.00048828125)">
   <path d="M 580,1141 L 1163,571 580,0 -4,571 580,1141 Z"/>
  </g>
  <g id="bullet-char-template-57354" transform="scale(0.00048828125,-0.00048828125)">
   <path d="M 8,1128 L 1137,1128 1137,0 8,0 8,1128 Z"/>
  </g>
  <g id="bullet-char-template-10146" transform="scale(0.00048828125,-0.00048828125)">
   <path d="M 174,0 L 602,739 174,1481 1456,739 174,0 Z M 1358,739 L 309,1346 659,739 1358,739 Z"/>
  </g>
  <g id="bullet-char-template-10132" transform="scale(0.00048828125,-0.00048828125)">
   <path d="M 2015,739 L 1276,0 717,0 1260,543 174,543 174,936 1260,936 717,1481 1274,1481 2015,739 Z"/>
  </g>
  <g id="bullet-char-template-10007" transform="scale(0.00048828125,-0.00048828125)">
   <path d="M 0,-2 C -7,14 -16,27 -25,37 L 356,567 C 262,823 215,952 215,954 215,979 228,992 255,992 264,992 276,990 289,987 310,991 331,999 354,1012 L 381,999 492,748 772,1049 836,1024 860,1049 C 881,1039 901,1025 922,1006 886,937 835,863 770,784 769,783 710,716 594,584 L 774,223 C 774,196 753,168 711,139 L 727,119 C 717,90 699,76 672,76 641,76 570,178 457,381 L 164,-76 C 142,-110 111,-127 72,-127 30,-127 9,-110 8,-76 1,-67 -2,-52 -2,-32 -2,-23 -1,-13 0,-2 Z"/>
  </g>
  <g id="bullet-char-template-10004" transform="scale(0.00048828125,-0.00048828125)">
   <path d="M 285,-33 C 182,-33 111,30 74,156 52,228 41,333 41,471 41,549 55,616 82,672 116,743 169,778 240,778 293,778 328,747 346,684 L 369,508 C 377,444 397,411 428,410 L 1163,1116 C 1174,1127 1196,1133 1229,1133 1271,1133 1292,1118 1292,1087 L 1292,965 C 1292,929 1282,901 1262,881 L 442,47 C 390,-6 338,-33 285,-33 Z"/>
  </g>
  <g id="bullet-char-template-9679" transform="scale(0.00048828125,-0.00048828125)">
   <path d="M 813,0 C 632,0 489,54 383,161 276,268 223,411 223,592 223,773 276,916 383,1023 489,1130 632,1184 813,1184 992,1184 1136,1130 1245,1023 1353,916 1407,772 1407,592 1407,412 1353,268 1245,161 1136,54 992,0 813,0 Z"/>
  </g>
  <g id="bullet-char-template-8226" transform="scale(0.00048828125,-0.00048828125)">
   <path d="M 346,457 C 273,457 209,483 155,535 101,586 74,649 74,723 74,796 101,859 155,911 209,963 273,989 346,989 419,989 480,963 531,910 582,859 608,796 608,723 608,648 583,586 532,535 482,483 420,457 346,457 Z"/>
  </g>
  <g id="bullet-char-template-8211" transform="scale(0.00048828125,-0.00048828125)">
   <path d="M -4,459 L 1135,459 1135,606 -4,606 -4,459 Z"/>
  </g>
  <g id="bullet-char-template-61548" transform="scale(0.00048828125,-0.00048828125)">
   <path d="M 173,740 C 173,903 231,1043 346,1159 462,1274 601,1332 765,1332 928,1332 1067,1274 1183,1159 1299,1043 1357,903 1357,740 1357,577 1299,437 1183,322 1067,206 928,148 765,148 601,148 462,206 346,322 231,437 173,577 173,740 Z"/>
  </g>
 </defs>
 <defs class="TextEmbeddedBitmaps"/>
 <g class="SlideGroup">
  <g>
   <g id="container-id1">
    <g id="id1" class="Slide" clip-path="url(#presentation_clip_path)">
     <g class="Page">
      <g class="com.sun.star.drawing.ClosedBezierShape">
       <g id="id3">
        <rect class="BoundingBox" stroke="none" fill="none" x="998" y="656" width="24232" height="14702"/>
        <path fill="rgb(0,0,0)" stroke="none" d="M 21054,5276 C 20319,2625 17904,656 14990,656 12470,656 10291,2152 9293,4279 9162,4279 9057,4252 8926,4252 6852,4252 5172,5880 5067,7928 4936,7928 4804,7901 4699,7901 2652,7901 998,9555 998,11629 998,13677 2652,15357 4699,15357 L 20161,15357 C 22970,15357 25228,13073 25228,10290 25254,7770 23443,5696 21054,5276 Z"/>
       </g>
      </g>
      <g class="com.sun.star.drawing.ClosedBezierShape">
       <g id="id4">
        <rect class="BoundingBox" stroke="none" fill="none" x="17125" y="16511" width="4074" height="4543"/>
        <path fill="rgb(0,0,0)" stroke="none" d="M 21133,17666 C 21001,17456 20739,17377 20529,17509 L 19610,18034 19610,16957 C 19610,16721 19400,16511 19163,16511 18927,16511 18717,16721 18717,16957 L 18717,18008 17798,17482 C 17588,17351 17325,17430 17194,17640 17063,17850 17142,18113 17352,18244 L 18271,18769 17352,19294 C 17247,19347 17168,19452 17142,19557 17115,19662 17115,19793 17194,19898 17247,20003 17352,20082 17457,20108 17562,20134 17693,20134 17798,20056 L 18717,19530 18717,20607 C 18717,20843 18927,21053 19163,21053 19400,21053 19610,20843 19610,20607 L 19610,19557 20529,20082 C 20634,20134 20739,20161 20870,20134 20975,20108 21080,20029 21133,19924 21264,19714 21185,19452 20975,19320 L 20056,18795 20975,18270 C 21185,18165 21264,17903 21133,17666 Z"/>
       </g>
      </g>
      <g class="com.sun.star.drawing.ClosedBezierShape">
       <g id="id5">
        <rect class="BoundingBox" stroke="none" fill="none" x="11144" y="16538" width="4069" height="4543"/>
        <path fill="rgb(0,0,0)" stroke="none" d="M 14885,20161 C 14990,20135 15095,20056 15147,19951 15279,19741 15200,19479 14990,19347 L 14071,18822 14990,18297 C 15200,18166 15279,17903 15147,17693 15016,17483 14754,17404 14544,17536 L 13625,18061 13625,16984 C 13625,16748 13414,16538 13178,16538 12942,16538 12732,16748 12732,16984 L 12732,18035 11813,17509 C 11603,17378 11340,17457 11209,17667 11156,17772 11130,17877 11156,18008 11183,18113 11261,18218 11366,18271 L 12285,18796 11366,19321 C 11156,19452 11078,19715 11209,19925 11261,20030 11366,20109 11472,20135 11577,20161 11708,20161 11813,20083 L 12732,19557 12732,20634 C 12732,20870 12942,21080 13178,21080 13414,21080 13625,20870 13625,20634 L 13625,19584 14544,20109 C 14649,20161 14780,20188 14885,20161 Z"/>
       </g>
      </g>
      <g class="com.sun.star.drawing.ClosedBezierShape">
       <g id="id6">
        <rect class="BoundingBox" stroke="none" fill="none" x="14347" y="21053" width="4072" height="4543"/>
        <path fill="rgb(0,0,0)" stroke="none" d="M 18402,22550 C 18428,22445 18428,22313 18349,22208 18297,22103 18192,22024 18087,21998 17982,21972 17851,21972 17746,22051 L 16827,22576 16827,21499 C 16827,21263 16616,21053 16380,21053 16144,21053 15934,21263 15934,21499 L 15934,22550 15015,22024 C 14910,21972 14805,21946 14674,21972 14568,21998 14463,22077 14411,22182 14280,22392 14358,22655 14568,22786 L 15487,23311 14568,23836 C 14358,23967 14280,24230 14411,24440 14542,24650 14805,24729 15015,24598 L 15934,24072 15934,25149 C 15934,25385 16144,25595 16380,25595 16616,25595 16827,25385 16827,25149 L 16827,24099 17746,24624 C 17956,24755 18218,24676 18349,24466 18481,24256 18402,23994 18192,23862 L 17273,23337 18192,22812 C 18297,22760 18376,22655 18402,22550 Z"/>
       </g>
      </g>
      <g class="com.sun.star.drawing.ClosedBezierShape">
       <g id="id7">
        <rect class="BoundingBox" stroke="none" fill="none" x="7937" y="21053" width="4077" height="4543"/>
        <path fill="rgb(0,0,0)" stroke="none" d="M 11997,22550 C 12023,22445 12023,22313 11945,22208 11892,22103 11787,22024 11682,21998 11577,21972 11446,21972 11341,22051 L 10422,22576 10422,21499 C 10422,21263 10212,21053 9975,21053 9739,21053 9529,21263 9529,21499 L 9529,22550 8610,22024 C 8400,21893 8137,21972 8006,22182 7875,22392 7954,22655 8164,22786 L 9083,23311 8164,23836 C 8059,23889 7980,23994 7954,24099 7927,24204 7927,24335 8006,24440 8059,24545 8164,24624 8269,24650 8374,24676 8505,24676 8610,24598 L 9529,24072 9529,25149 C 9529,25385 9739,25595 9975,25595 10212,25595 10422,25385 10422,25149 L 10422,24099 11341,24624 C 11551,24755 11813,24676 11945,24466 12076,24256 11997,23994 11787,23862 L 10868,23337 11787,22812 C 11892,22760 11971,22655 11997,22550 Z M 8531,24440 L 8531,24440 Z"/>
       </g>
      </g>
      <g class="com.sun.star.drawing.ClosedBezierShape">
       <g id="id8">
        <rect class="BoundingBox" stroke="none" fill="none" x="5160" y="16538" width="4068" height="4543"/>
        <path fill="rgb(0,0,0)" stroke="none" d="M 8900,20161 C 9005,20135 9110,20056 9162,19951 9215,19846 9241,19741 9215,19610 9189,19505 9110,19400 9005,19347 L 8086,18822 9005,18297 C 9215,18166 9294,17903 9162,17693 9031,17483 8769,17404 8559,17536 L 7640,18061 7640,16984 C 7640,16748 7429,16538 7193,16538 6957,16538 6747,16748 6747,16984 L 6747,18035 5828,17509 C 5618,17378 5355,17457 5224,17667 5093,17877 5171,18140 5381,18271 L 6300,18796 5381,19321 C 5171,19452 5093,19715 5224,19925 5276,20030 5381,20109 5487,20135 5592,20161 5723,20161 5828,20083 L 6747,19557 6747,20634 C 6747,20870 6957,21080 7193,21080 7429,21080 7640,20870 7640,20634 L 7640,19584 8559,20109 C 8664,20161 8795,20188 8900,20161 Z M 8900,19531 L 8900,19531 Z M 8690,17693 L 8690,17693 Z"/>
       </g>
      </g>
     </g>
    </g>
   </g>
  </g>
 </g>
</svg>